# xmcd
#
# Track frame offsets: 
#        150
#        12337
#        26220
#        33565
#        47212
#        63130
#        76822
#        94740
#        104540
#        113075
#        118887
#        130917
#        144165
#        156212
#        163957
#        177420
#        203760
#        218935
#        234255
#        248772
#        276582
#        287670
#        302195
#        319757
#        335315
#
# Disc length: 4507 seconds
#
# Revision: 3
# Processed by: cddbd v1.5.1PL0 Copyright (c) Steve Scherf et al.
# Submitted via: ExactAudioCopy v0.95a5
#
DISCID=6d119919
DTITLE=Johnny Cash - At Folsom Prison And San Quentin
DYEAR=1976
DGENRE=Country
TTITLE0=Folsom Prison Blues #1
TTITLE1=Dark As The Dungeon
TTITLE2=I Still Miss Someone
TTITLE3=Cocaine Blues
TTITLE4=25 Minutes To Go
TTITLE5=Orange Blossom Special
TTITLE6=The Long Black Veil
TTITLE7=Send A Picture Of Mother
TTITLE8=The Wall
TTITLE9=Dirty Old Egg-Sucking Dog
TTITLE10=Flushed From The Bathroom Of Your Heart
TTITLE11=Jackson (with June Carter)
TTITLE12=Give My Love To Rose (with June Carter)
TTITLE13=I Got Stripes
TTITLE14=Green, Green Grass Of Home
TTITLE15=Greystone Chapel
TTITLE16=Wanted Man
TTITLE17=Wreck Of The Old  '97
TTITLE18=I Walk The Line
TTITLE19=Darlin' Companion
TTITLE20=Starkville City Jail
TTITLE21=San Quentin
TTITLE22=A Boy Named Sue
TTITLE23=(There'll Be) Peace In The Valley
TTITLE24=Folsom Prison Blues #2
EXTD=
EXTT0=
EXTT1=
EXTT2=
EXTT3=
EXTT4=
EXTT5=
EXTT6=
EXTT7=
EXTT8=
EXTT9=
EXTT10=
EXTT11=
EXTT12=
EXTT13=
EXTT14=
EXTT15=
EXTT16=
EXTT17=
EXTT18=
EXTT19=
EXTT20=
EXTT21=
EXTT22=
EXTT23=
EXTT24=
PLAYORDER=
